<svg width="76" height="75" viewBox="0 0 76 75" fill="none" xmlns="http://www.w3.org/2000/svg">
<path d="M17.1667 17.1008H58.8334V57.8994H17.1667V17.1008Z" fill="url(#paint0_linear_147_79)"/>
<path d="M32.3666 37.8706H36.0598L34.2132 30.709L32.3666 37.8706ZM20.319 20.2953V54.7248H55.7339V20.2953H20.319ZM38.0867 45.7228L36.7355 41.0687H31.7359L30.3846 45.7228H26.9615L31.7809 29.2678V27.4661H36.3752L41.8701 45.7228H38.0867ZM47.1852 45.7228H43.4919V31.8352H47.1852V45.7228ZM45.3609 30.1686C44.3036 30.1686 43.4465 29.3217 43.4465 28.277C43.4465 27.2321 44.3035 26.3852 45.3609 26.3852C46.4184 26.3852 47.2752 27.2321 47.2752 28.277C47.2752 29.3217 46.4182 30.1686 45.3609 30.1686Z" fill="url(#paint1_linear_147_79)"/>
<defs>
<linearGradient id="paint0_linear_147_79" x1="58.6164" y1="16.8837" x2="17.7816" y2="57.7184" gradientUnits="userSpaceOnUse">
<stop stop-color="#FFAA2A"/>
<stop offset="1" stop-color="#FFC06C"/>
</linearGradient>
<linearGradient id="paint1_linear_147_79" x1="38.0265" y1="20.2376" x2="38.0265" y2="54.551" gradientUnits="userSpaceOnUse">
<stop stop-color="#251200"/>
<stop offset="1"/>
</linearGradient>
</defs>
</svg>
