<svg width="76" height="75" viewBox="0 0 76 75" fill="none" xmlns="http://www.w3.org/2000/svg">
<path fill-rule="evenodd" clip-rule="evenodd" d="M25.8209 20.9041C23.4436 20.9041 21.6843 22.9849 21.7632 25.2416C21.8387 27.4096 21.7405 30.2176 21.0337 32.5075C20.3242 34.8038 19.1253 36.259 17.1667 36.4458V38.5545C19.1253 38.7416 20.3242 40.1961 21.0335 42.4927C21.7405 44.7826 21.8387 47.5905 21.763 49.7586C21.6843 52.0149 23.4434 54.0961 25.8213 54.0961H50.1823C52.5596 54.0961 54.3185 52.0153 54.2398 49.7586C54.1641 47.5905 54.2624 44.7826 54.9693 42.4927C55.6787 40.1961 56.8746 38.7411 58.8334 38.5545V36.4458C56.8747 36.2586 55.6787 34.8041 54.9693 32.5075C54.2623 30.218 54.1641 27.4096 54.2398 25.2416C54.3185 22.9853 52.5596 20.9041 50.1823 20.9041H25.8209ZM45.4154 41.3359C45.4154 44.4433 43.0975 46.3278 39.251 46.3278H32.7034C32.516 46.3278 32.3364 46.2534 32.204 46.1209C32.0715 45.9885 31.9972 45.8089 31.9972 45.6216V29.3787C31.9972 29.1914 32.0715 29.0117 32.204 28.8794C32.3364 28.7469 32.516 28.6724 32.7034 28.6724H39.2138C42.4211 28.6724 44.5259 30.4098 44.5259 33.0771C44.5259 34.9493 43.1099 36.6253 41.306 36.9188V37.0165C43.7617 37.2859 45.4154 38.9867 45.4154 41.3359ZM38.5372 30.9112H34.8038V36.1846H37.9482C40.379 36.1846 41.7193 35.2057 41.7193 33.4561C41.7191 31.8166 40.5667 30.9112 38.5372 30.9112ZM34.8038 38.277V44.0884H38.6745C41.2055 44.0884 42.5459 43.0728 42.5459 41.1644C42.5459 39.2557 41.1678 38.2766 38.5117 38.2766L34.8038 38.277Z" fill="#7952B3"/>
</svg>
