<svg width="100" height="100" viewBox="0 0 100 100" fill="none" xmlns="http://www.w3.org/2000/svg">
<path d="M85.69 75.32C85.46 74.11 85.28 72.96 84.27 71.96C63.52 51.28 42.8 30.55 22.11 9.81002C21.22 8.92002 20.77 8.85002 19.84 9.78002C15.36 14.34 10.79 18.81 6.25 23.31V23.65C6.89 23.85 7.22 24.42 7.66 24.85C28.23 45.4 48.78 65.96 69.34 86.53C70.04 87.23 70.75 87.77 71.76 87.98C76.9 89 82.03 90.07 87.16 91.15C88.26 91.38 88.68 91.25 88.42 89.94C87.45 85.08 86.61 80.19 85.69 75.32ZM74.72 82.41C74.23 83 73.56 83.16 72.88 82.77C72.54 82.58 72.26 82.27 71.98 81.99C52.91 62.92 33.84 43.86 14.78 24.79C14.5 24.51 14.17 24.24 13.98 23.9C13.42 22.91 14.12 21.67 15.29 21.65C16.06 21.69 16.5 22.34 17.02 22.85L55.55 61.39C61.61 67.45 67.67 73.51 73.72 79.57C74.08 79.93 74.45 80.29 74.77 80.69C75.24 81.26 75.16 81.88 74.72 82.41ZM79.81 77.33C79.28 77.62 78.7 77.64 78.19 77.26C77.83 76.99 77.52 76.64 77.19 76.32L20.51 19.62C20.27 19.38 20.02 19.14 19.79 18.89C19.14 18.22 19 17.46 19.65 16.76C20.37 15.98 21.17 16.14 21.9 16.83C22.15 17.06 22.39 17.31 22.63 17.55C41.49 36.41 60.35 55.27 79.2 74.13C79.76 74.69 80.45 75.16 80.56 76.11C80.49 76.58 80.29 77.06 79.81 77.33ZM93.31 23.21C88.65 18.59 83.99 13.95 79.38 9.28002C78.65 8.54002 78.27 8.72002 77.63 9.36002C69.98 17.05 62.31 24.72 54.62 32.38C54.04 32.96 53.81 33.34 54.53 34.01C56.03 35.41 57.48 36.87 58.89 38.37C59.46 38.98 59.83 38.97 60.38 38.38C60.91 37.82 61.3 37.38 60.48 36.76C60.07 36.45 59.77 36.02 59.38 35.68C58.72 35.12 58.47 34.67 59.24 33.9C59.99 33.15 60.44 33.33 61 34.01C61.36 34.45 61.83 34.8 62.2 35.23C62.73 35.85 63.12 35.63 63.59 35.15C64.08 34.66 64.48 34.25 63.74 33.64C63.3 33.28 62.94 32.82 62.52 32.44C61.96 31.94 61.59 31.55 62.34 30.8C63.05 30.1 63.52 30.11 64.11 30.85L65.19 31.95C65.77 32.69 66.22 32.54 66.82 31.92C67.38 31.35 67.51 30.95 66.83 30.41C66.43 30.09 66.12 29.67 65.73 29.33C65.13 28.79 64.73 28.4 65.54 27.58C66.37 26.73 66.81 27 67.4 27.71C67.72 28.11 68.16 28.41 68.47 28.81C69.01 29.52 69.4 29.32 69.95 28.78C70.53 28.21 70.78 27.77 69.99 27.19L69.01 26.24C68.05 25.54 68.09 25 68.97 24.15C71.9 21.35 74.76 18.47 77.58 15.56C78.32 14.79 78.72 14.8 79.45 15.56C81.82 18.03 84.23 20.47 86.72 22.82C87.68 23.73 87.59 24.22 86.7 25.1C80.3 31.46 73.93 37.85 67.56 44.24C67.11 44.69 66.09 45.15 66.48 45.76C67.18 46.83 68.25 47.66 69.22 48.64C69.53 48.38 69.8 48.19 70.04 47.95C77.79 40.2 85.54 32.44 93.31 24.71C93.9 24.13 93.89 23.79 93.31 23.21ZM41.96 69.76C37.18 74.67 32.3 79.48 27.45 84.33C27.13 84.65 26.79 84.96 26.39 85.34C26.2 85.18 26.02 85.07 25.88 84.92C23.13 82.18 20.38 79.43 17.64 76.68C17.4 76.44 17.19 76.24 17.39 75.81C18.19 74.1 19.6 73.8 20.9 75.1C21.06 75.26 21.25 75.4 21.38 75.59C21.93 76.33 22.37 76.42 23.11 75.69C23.82 74.98 23.6 74.59 23 74.07C22.65 73.77 22.38 73.39 22.02 73.11C21.24 72.49 21.15 72 21.94 71.2C22.78 70.35 23.18 70.89 23.7 71.44C24.09 71.86 24.53 72.23 24.91 72.66C25.5 73.34 25.87 72.86 26.29 72.46C26.74 72.03 27.1 71.64 26.44 71.07C26.05 70.74 25.7 70.35 25.35 69.98C24.82 69.43 24.09 69.06 25.03 68.1C26.02 67.08 26.46 67.78 27.06 68.4C27.34 68.69 27.66 68.94 27.9 69.25C28.45 69.96 28.87 69.91 29.51 69.28C30.16 68.63 30.14 68.21 29.46 67.66C29.06 67.34 28.76 66.9 28.36 66.59C27.62 66.01 27.57 65.57 28.3 64.86C29 64.18 29.39 64.34 29.91 64.96C30.24 65.35 30.65 65.67 30.99 66.06C31.49 66.64 31.88 66.93 32.6 66.2C33.3 65.49 33.3 65.05 32.55 64.47C32.19 64.2 31.92 63.81 31.57 63.51C30.95 62.98 30.59 62.58 31.39 61.76C32.21 60.92 32.68 61.15 33.27 61.88C33.59 62.28 34.02 62.59 34.34 62.98C34.92 63.69 35.34 63.38 35.87 62.88C36.47 62.32 36.5 61.94 35.89 61.36C34.44 59.98 33 58.59 31.67 57.11C30.9 56.25 30.5 56.49 29.81 57.18C23.86 63.18 17.88 69.16 11.87 75.11C11.06 75.91 11.09 76.34 11.88 77.12C16.36 81.53 20.81 85.96 25.21 90.45C26.11 91.37 26.6 91.48 27.58 90.49C33.14 84.82 38.78 79.24 44.4 73.62C46.28 71.74 46.23 71.79 44.37 69.79C43.45 68.86 42.94 68.75 41.96 69.76ZM82.06 24.09C82.09 22.03 80.47 20.34 78.45 20.33C76.5 20.32 74.85 21.92 74.79 23.89C74.73 26.01 76.41 27.76 78.5 27.74C80.42 27.71 82.04 26.06 82.06 24.09Z" fill="white" fill-opacity="0.05"/>
</svg>
