<svg width="100" height="100" viewBox="0 0 100 100" fill="none" xmlns="http://www.w3.org/2000/svg">
<path d="M24.05 55.2L42.48 63.19C42.65 63.26 42.78 63.17 42.78 62.99V58.29C42.78 58.11 42.64 57.91 42.47 57.84L29.82 52.86C29.65 52.79 29.65 52.69 29.82 52.62L42.47 47.75C42.64 47.68 42.78 47.49 42.78 47.3V42.56C42.78 42.38 42.65 42.29 42.48 42.36L24.05 50.35C23.88 50.42 23.75 50.63 23.75 50.81V54.73C23.75 54.92 23.88 55.12 24.05 55.2ZM47 66.96C47.52 66.96 47.91 66.84 48.18 66.61C48.45 66.38 48.65 66.05 48.79 65.64C48.92 65.23 49.08 64.66 49.25 63.94L54.55 42.13C54.81 41.1 54.95 40.38 54.95 39.99C54.95 39.46 54.78 39.04 54.45 38.74C54.11 38.44 53.63 38.29 53 38.29C52.27 38.29 51.78 38.5 51.52 38.94C51.27 39.37 51.01 40.16 50.73 41.32L45.45 63.13C45.2 64.29 45.07 65.01 45.07 65.3C45.07 66.41 45.71 66.96 47 66.96ZM57.52 63.22L75.95 55.2C76.12 55.13 76.25 54.92 76.25 54.74V50.86C76.25 50.68 76.12 50.47 75.95 50.4L57.52 42.45C57.35 42.38 57.22 42.47 57.22 42.65V47.3C57.22 47.48 57.36 47.68 57.53 47.75L70.22 52.66C70.39 52.73 70.39 52.83 70.22 52.9L57.53 57.88C57.36 57.95 57.22 58.15 57.22 58.33V63.03C57.22 63.2 57.35 63.29 57.52 63.22ZM88.5 11.5H11.5C8.6 11.5 6.25 13.85 6.25 16.75V83.25C6.25 86.15 8.6 88.5 11.5 88.5H88.5C91.4 88.5 93.75 86.15 93.75 83.25V16.75C93.75 13.85 91.4 11.5 88.5 11.5ZM88.5 83.25H11.5V25.5H88.5V83.25Z" fill="white" fill-opacity="0.05"/>
</svg>
