<svg width="76" height="75" viewBox="0 0 76 75" fill="none" xmlns="http://www.w3.org/2000/svg">
<path d="M56.3698 16.6667L53.0227 54.1623L37.9775 58.3334L22.9738 54.1682L19.6302 16.6667H56.3698Z" fill="#264DE4"/>
<path d="M50.1572 51.7749L53.0175 19.7332H38V55.1453L50.1572 51.7749Z" fill="#2965F1"/>
<path d="M27.295 33.6418L27.7073 38.2412H38V33.6418H27.295Z" fill="#EBEBEB"/>
<path d="M38.0001 24.3325H37.9841H26.4668L26.8849 28.9319H38.0001V24.3325Z" fill="#EBEBEB"/>
<path d="M37.9999 50.3722V45.5868L37.9797 45.5923L32.8574 44.2091L32.5299 40.5408H30.0408H27.9128L28.5572 47.7626L37.9786 50.3781L37.9999 50.3722Z" fill="#EBEBEB"/>
<path d="M43.6477 38.2411L43.1137 44.2063L37.984 45.5909V50.3759L47.413 47.7627L47.4822 46.9856L48.563 34.8769L48.6753 33.6418L49.5056 24.3325H37.984V28.9319H44.4651L44.0466 33.6418H37.984V38.2411H43.6477Z" fill="#1E2235"/>
</svg>
