<svg width="64" height="64" viewBox="0 0 64 64" fill="none" xmlns="http://www.w3.org/2000/svg">
<path d="M15.5409 50.1184V49.6192L15.1419 49.3192C9.04533 44.7344 5.17285 37.7426 5.17285 29.9264C5.17285 16.2273 17.1181 5 32.0001 5C46.8817 5 58.8209 16.2271 58.8209 29.9264C58.8209 43.6255 46.8756 54.8528 31.9937 54.8528C29.3134 54.8528 26.722 54.4876 24.2811 53.8079L23.8871 53.6981L23.5291 53.896L15.5409 58.3111V50.1184ZM34.0332 39.5937L34.7631 40.377L35.4949 39.5954L50.7013 23.3522L49.4847 21.7952L36.5096 29.0218L29.7861 21.9722L29.0557 21.2064L28.3324 21.979L13.1196 38.2286L14.3314 39.7883L27.4794 32.5603L34.0332 39.5937Z" fill="white" stroke="black" stroke-width="2"/>
</svg>
