<svg width="76" height="75" viewBox="0 0 76 75" fill="none" xmlns="http://www.w3.org/2000/svg">
<path d="M31.0555 58.3334C34.8889 58.3334 38 55.2222 38 51.3889V44.4445H31.0555C27.2222 44.4445 24.1111 47.5556 24.1111 51.3889C24.1111 55.2222 27.2222 58.3334 31.0555 58.3334Z" fill="#0ACF83"/>
<path d="M24.1111 37.5C24.1111 33.6666 27.2222 30.5555 31.0555 30.5555H38V44.4443H31.0555C27.2222 44.4443 24.1111 41.3333 24.1111 37.5Z" fill="#A259FF"/>
<path d="M24.1111 23.6111C24.1111 19.7778 27.2222 16.6667 31.0555 16.6667H38V30.5555H31.0555C27.2222 30.5555 24.1111 27.4445 24.1111 23.6111Z" fill="#F24E1E"/>
<path d="M38 16.6667H44.9445C48.7778 16.6667 51.8889 19.7778 51.8889 23.6111C51.8889 27.4445 48.7778 30.5555 44.9445 30.5555H38V16.6667Z" fill="#FF7262"/>
<path d="M51.8889 37.5C51.8889 41.3333 48.7778 44.4443 44.9445 44.4443C41.1112 44.4443 38 41.3333 38 37.5C38 33.6666 41.1112 30.5555 44.9445 30.5555C48.7778 30.5555 51.8889 33.6666 51.8889 37.5Z" fill="#1ABCFE"/>
</svg>
