<svg width="76" height="75" viewBox="0 0 76 75" fill="none" xmlns="http://www.w3.org/2000/svg">
<path d="M56.8193 53.1194C56.8347 55.9801 54.5276 58.3095 51.6687 58.3249C51.4561 58.3267 51.2418 58.3147 51.031 58.289C48.3776 57.8965 46.4339 55.5877 46.4992 52.9068V22.0849C46.4357 19.4007 48.3846 17.0919 51.0396 16.7029C53.8797 16.3703 56.4525 18.4031 56.785 21.2433C56.809 21.4524 56.821 21.6616 56.8193 21.8724V53.1194Z" fill="#F9AB00"/>
<path d="M24.3417 48.0115C27.1921 48.0115 29.5027 50.322 29.5027 53.1724C29.5027 56.0229 27.1921 58.3335 24.3417 58.3335C21.4912 58.3335 19.1807 56.0229 19.1807 53.1724C19.1807 50.322 21.4912 48.0115 24.3417 48.0115ZM37.9204 32.3707C35.0562 32.5285 32.8348 34.9299 32.9016 37.7974V51.6589C32.9016 55.4213 34.5574 57.7044 36.9827 58.1911C39.7818 58.7586 42.5089 56.9503 43.0762 54.1512C43.1465 53.8083 43.1808 53.4603 43.1791 53.1108V37.5575C43.1841 34.6968 40.8703 32.3742 38.0095 32.3691C37.9804 32.3691 37.9495 32.3691 37.9204 32.3707Z" fill="#E37400"/>
</svg>
