<svg width="64" height="64" viewBox="0 0 64 64" fill="none" xmlns="http://www.w3.org/2000/svg">
<g clip-path="url(#clip0_537_2)">
<path d="M31.9988 1.29725H32.3998L32.4017 1.28894C49.6141 1.50344 63.5012 15.5256 63.5012 32.7853C63.5012 46.6827 54.5043 58.4795 42.0117 62.6584C41.3322 62.7821 40.9646 62.6234 40.7663 62.4426C40.5493 62.2447 40.4383 61.933 40.4383 61.6081C40.4383 61.2608 40.4423 60.6512 40.4477 59.834C40.4504 59.4178 40.4535 58.9477 40.4566 58.4309C40.4657 56.9018 40.4749 54.9687 40.4749 52.8277C40.4749 50.3305 39.7815 48.4818 38.8411 47.2793C42.1266 46.8277 45.4836 45.8953 48.0995 43.7069C51.0022 41.2786 52.9133 37.3735 52.9133 31.1187C52.9133 27.6155 51.7053 24.7175 49.6964 22.4246C50.1261 21.2202 50.9098 18.0346 49.27 13.8798L49.183 13.6594L48.9572 13.5872L48.8049 14.0634C48.9572 13.5872 48.9562 13.5868 48.9562 13.5868L48.9552 13.5865L48.9529 13.5858L48.9475 13.5842L48.9338 13.5801C48.9234 13.5772 48.9102 13.5736 48.8943 13.5696C48.8625 13.5617 48.8199 13.5521 48.7664 13.5424C48.6592 13.5231 48.5084 13.5033 48.3128 13.4944C47.9211 13.4766 47.3524 13.5026 46.5959 13.6622C45.1152 13.9746 42.9196 14.7978 39.9235 16.8008C37.3866 16.1198 34.6809 15.779 31.9987 15.7674H31.9943C29.3141 15.779 26.6131 16.121 24.0801 16.8008C21.0798 14.7966 18.8814 13.9732 17.399 13.6611C16.6417 13.5017 16.0724 13.476 15.6804 13.4941C15.4845 13.5031 15.3336 13.523 15.2264 13.5424C15.1728 13.5521 15.1302 13.5617 15.0984 13.5697C15.0825 13.5737 15.0693 13.5772 15.0588 13.5802L15.0451 13.5842L15.0398 13.5859L15.0375 13.5866L15.0364 13.5869C15.0364 13.5869 15.0354 13.5872 15.188 14.0634L15.0354 13.5872L14.8098 13.6596L14.7228 13.88C13.0843 18.036 13.8742 21.2205 14.3039 22.4249C12.3018 24.7168 11.0832 27.6144 11.0832 31.1187C11.0832 37.3594 12.9901 41.2673 15.8856 43.7042C18.4974 45.9024 21.8498 46.8475 25.1312 47.3064C24.4665 48.1651 23.9306 49.3512 23.679 50.8634C22.7782 51.2366 21.3828 51.6574 19.906 51.5257C18.3211 51.3844 16.5964 50.6048 15.2524 48.305L15.2483 48.2979L15.2302 48.2664C15.2148 48.2401 15.1927 48.2031 15.1639 48.1567C15.1062 48.0641 15.0216 47.9342 14.9103 47.7788C14.6881 47.4686 14.3569 47.0534 13.9183 46.63C13.0445 45.7866 11.7137 44.8824 9.94916 44.7591L9.93524 44.758L9.92129 44.7579L9.9143 45.2579C9.92129 44.7579 9.92129 44.7579 9.92129 44.7579H9.91949H9.91655L9.90732 44.7578L9.8762 44.7579C9.85013 44.7581 9.81359 44.7587 9.76889 44.7602C9.67995 44.7632 9.55641 44.7698 9.41737 44.785C9.1592 44.8131 8.77176 44.8773 8.46815 45.0498C8.31099 45.1391 8.12959 45.2837 8.0293 45.5131C7.92222 45.7582 7.94321 46.0171 8.04195 46.2528C8.21862 46.6746 8.68092 47.1148 9.41091 47.6147L9.44438 47.6376L9.47844 47.6535L9.47939 47.6539L9.4806 47.6544L9.48809 47.6584C9.4981 47.6636 9.51555 47.6728 9.53981 47.6866C9.58831 47.7141 9.664 47.7596 9.76166 47.8263C9.95691 47.9599 10.2403 48.1786 10.5701 48.5094C11.2272 49.1684 12.0755 50.2785 12.7771 52.0583L12.7809 52.069C12.7861 52.0837 12.7934 52.1037 12.8029 52.1285C12.822 52.178 12.8501 52.2471 12.8885 52.3324C12.9653 52.5027 13.0837 52.7384 13.2544 53.0121C13.5956 53.5595 14.1481 54.2627 14.9976 54.8997C16.6373 56.1292 19.3104 57.0582 23.5296 56.2728C23.5372 57.5575 23.5483 58.773 23.5571 59.7397C23.5651 60.6126 23.5712 61.2826 23.5712 61.6175C23.5712 61.9356 23.4595 62.247 23.24 62.4472C23.0389 62.6307 22.6719 62.7892 22.0066 62.6733C9.50751 58.496 0.5 46.7009 0.5 32.796C0.5 15.4004 14.6054 1.29725 31.9988 1.29725Z" fill="white"/>
<path d="M9.92129 44.7579L9.93524 44.758L9.94916 44.7591C11.7137 44.8824 13.0445 45.7866 13.9183 46.63C14.3569 47.0534 14.6881 47.4686 14.9103 47.7788C15.0216 47.9342 15.1062 48.0641 15.1639 48.1567C15.1927 48.2031 15.2148 48.2401 15.2302 48.2664L15.2483 48.2979L15.2524 48.305C16.5964 50.6048 18.3211 51.3844 19.906 51.5257C21.3828 51.6574 22.7782 51.2366 23.679 50.8634C23.9306 49.3512 24.4665 48.1651 25.1312 47.3064C21.8498 46.8475 18.4974 45.9024 15.8856 43.7042C12.9901 41.2673 11.0832 37.3594 11.0832 31.1187C11.0832 27.6144 12.3018 24.7168 14.3039 22.4249C13.8742 21.2205 13.0843 18.036 14.7228 13.88L14.8098 13.6596L15.0354 13.5872L15.188 14.0634C15.0354 13.5872 15.0364 13.5869 15.0364 13.5869L15.0375 13.5866L15.0398 13.5859L15.0451 13.5842L15.0588 13.5802C15.0693 13.5772 15.0825 13.5737 15.0984 13.5697C15.1302 13.5617 15.1728 13.5521 15.2264 13.5424C15.3336 13.523 15.4845 13.5031 15.6804 13.4941C16.0724 13.476 16.6417 13.5017 17.399 13.6611C18.8814 13.9732 21.0798 14.7966 24.0801 16.8008C26.6131 16.121 29.3141 15.779 31.9943 15.7674H31.9987C34.6809 15.779 37.3866 16.1198 39.9235 16.8008C42.9196 14.7978 45.1152 13.9746 46.5959 13.6622C47.3524 13.5026 47.9211 13.4766 48.3128 13.4944C48.5084 13.5033 48.6592 13.5231 48.7664 13.5424C48.8199 13.5521 48.8625 13.5617 48.8943 13.5696C48.9102 13.5736 48.9234 13.5772 48.9338 13.5801L48.9475 13.5842L48.9529 13.5858L48.9552 13.5865L48.9562 13.5868C48.9562 13.5868 48.9572 13.5872 48.8049 14.0634L48.9572 13.5872L49.183 13.6594L49.27 13.8798C50.9098 18.0346 50.1261 21.2202 49.6964 22.4246C51.7053 24.7175 52.9133 27.6155 52.9133 31.1187C52.9133 37.3735 51.0022 41.2786 48.0995 43.7069C45.4836 45.8953 42.1266 46.8277 38.8411 47.2793C39.7815 48.4818 40.4749 50.3305 40.4749 52.8277C40.4749 54.9687 40.4657 56.9018 40.4566 58.4309C40.4535 58.9477 40.4504 59.4178 40.4477 59.834C40.4423 60.6512 40.4383 61.2608 40.4383 61.6081C40.4383 61.933 40.5493 62.2447 40.7663 62.4426C40.9646 62.6234 41.3322 62.7821 42.0117 62.6584C54.5043 58.4795 63.5012 46.6827 63.5012 32.7853C63.5012 15.5256 49.6141 1.50344 32.4017 1.28894L32.3998 1.29725H31.9988C14.6054 1.29725 0.5 15.4004 0.5 32.796C0.5 46.7009 9.50751 58.496 22.0066 62.6733C22.6719 62.7892 23.0389 62.6307 23.24 62.4472C23.4595 62.247 23.5712 61.9356 23.5712 61.6175C23.5712 61.2826 23.5651 60.6126 23.5571 59.7397C23.5483 58.773 23.5372 57.5575 23.5296 56.2728C19.3104 57.0582 16.6373 56.1292 14.9976 54.8997C14.1481 54.2627 13.5956 53.5595 13.2544 53.0121C13.0837 52.7384 12.9653 52.5027 12.8885 52.3324C12.8501 52.2471 12.822 52.178 12.8029 52.1285C12.7934 52.1037 12.7861 52.0837 12.7809 52.069L12.7771 52.0583C12.0755 50.2785 11.2272 49.1684 10.5701 48.5094C10.2403 48.1786 9.95691 47.9599 9.76166 47.8263C9.664 47.7596 9.58831 47.7141 9.53981 47.6866C9.51555 47.6728 9.4981 47.6636 9.48809 47.6584L9.4806 47.6544L9.47939 47.6539L9.47844 47.6535L9.44438 47.6376L9.41091 47.6147C8.68092 47.1148 8.21862 46.6746 8.04195 46.2528C7.94321 46.0171 7.92222 45.7582 8.0293 45.5131C8.12959 45.2837 8.31099 45.1391 8.46815 45.0498C8.77176 44.8773 9.1592 44.8131 9.41737 44.785C9.55641 44.7698 9.67995 44.7632 9.76889 44.7602C9.81359 44.7587 9.85013 44.7581 9.8762 44.7579L9.90732 44.7578L9.91655 44.7579H9.91949H9.92129ZM9.92129 44.7579L9.9143 45.2579C9.92129 44.7579 9.92129 44.7579 9.92129 44.7579Z" stroke="black" stroke-width="2"/>
</g>
<defs>
<clipPath id="clip0_537_2">
<rect width="64" height="64" fill="white"/>
</clipPath>
</defs>
</svg>
