<svg width="76" height="75" viewBox="0 0 76 75" fill="none" xmlns="http://www.w3.org/2000/svg">
<path d="M38.0001 17.1809C26.4955 17.1809 17.1667 26.5082 17.1667 38.0143C17.1667 47.2192 23.1361 55.0285 31.4139 57.7832C32.4551 57.9761 32.8373 57.3314 32.8373 56.781C32.8373 56.2843 32.8179 54.643 32.8091 52.9022C27.013 54.1625 25.7901 50.4442 25.7901 50.4442C24.8425 48.036 23.4769 47.3959 23.4769 47.3959C21.5868 46.1028 23.6194 46.1293 23.6194 46.1293C25.7115 46.2764 26.8131 48.2763 26.8131 48.2763C28.6712 51.4613 31.6867 50.5404 32.8756 50.0083C33.0626 48.6615 33.6026 47.7426 34.1983 47.2224C29.5709 46.6954 24.7065 44.9091 24.7065 36.9263C24.7065 34.6519 25.5203 32.7934 26.8531 31.3343C26.6368 30.8096 25.9238 28.6907 27.055 25.821C27.055 25.821 28.8043 25.2611 32.7856 27.9565C34.4473 27.4947 36.2296 27.2635 38.0001 27.2556C39.7707 27.2635 41.5542 27.4947 43.2192 27.9565C47.1957 25.2611 48.9426 25.821 48.9426 25.821C50.0766 28.6907 49.3633 30.8096 49.1469 31.3343C50.4827 32.7934 51.2909 34.6518 51.2909 36.9263C51.2909 44.928 46.4173 46.6901 41.7783 47.2057C42.5255 47.8523 43.1912 49.1202 43.1912 51.0638C43.1912 53.8512 43.1671 56.0948 43.1671 56.781C43.1671 57.3354 43.5421 57.9851 44.5983 57.7806C52.8714 55.0226 58.8334 47.2161 58.8334 38.0143C58.8334 26.5082 49.5058 17.1809 38.0001 17.1809Z" fill="white"/>
<path d="M24.9694 46.8587C24.9238 46.9621 24.7606 46.9932 24.6124 46.9222C24.4613 46.8543 24.3764 46.7131 24.4254 46.6092C24.4703 46.5026 24.6334 46.4729 24.7842 46.5445C24.9357 46.6123 25.0219 46.7548 24.9694 46.8587ZM25.9942 47.773C25.8949 47.8652 25.7007 47.8223 25.5688 47.6767C25.4325 47.5316 25.407 47.3374 25.5078 47.2437C25.6103 47.1517 25.7987 47.1947 25.9353 47.3402C26.0715 47.4871 26.0982 47.68 25.9942 47.773ZM26.6974 48.9429C26.5696 49.0317 26.3608 48.9485 26.2318 48.7632C26.1042 48.5781 26.1042 48.3559 26.2346 48.2668C26.364 48.1778 26.5696 48.2579 26.7003 48.4416C26.8277 48.63 26.8279 48.8521 26.6974 48.9429ZM27.8861 50.298C27.772 50.4238 27.5288 50.3901 27.3508 50.2182C27.1687 50.0502 27.1179 49.8118 27.2324 49.6858C27.348 49.5598 27.5925 49.5951 27.772 49.7656C27.9528 49.9333 28.0079 50.1734 27.8861 50.298ZM29.4227 50.7555C29.3726 50.9185 29.1382 50.9927 28.9024 50.9234C28.6667 50.8521 28.5125 50.6608 28.56 50.4959C28.6091 50.3317 28.8444 50.2545 29.0821 50.3287C29.3173 50.3998 29.4717 50.5894 29.4227 50.7555ZM31.1717 50.9494C31.1775 51.1212 30.9775 51.2638 30.7297 51.2668C30.4806 51.2722 30.279 51.1332 30.2765 50.9643C30.2765 50.7907 30.472 50.6496 30.7211 50.6455C30.9687 50.6406 31.1717 50.7787 31.1717 50.9494ZM32.8896 50.8835C32.9193 51.0512 32.7472 51.2234 32.5012 51.2691C32.2594 51.3133 32.0355 51.2098 32.0047 51.0437C31.9746 50.8717 32.1501 50.6998 32.3915 50.6552C32.6378 50.6123 32.8582 50.7132 32.8896 50.8835Z" fill="white"/>
</svg>
