<svg width="76" height="75" viewBox="0 0 76 75" fill="none" xmlns="http://www.w3.org/2000/svg">
<path d="M58.8334 16.6667H17.1667V58.3334H58.8334V16.6667Z" fill="#F7DF1E"/>
<path d="M45.156 49.2189C45.9954 50.5893 47.0873 51.5966 49.0185 51.5966C50.6408 51.5966 51.6771 50.7856 51.6771 49.6653C51.6771 48.3227 50.6124 47.8473 48.8266 47.066L47.8479 46.6462C45.0225 45.4424 43.1455 43.9345 43.1455 40.7466C43.1455 37.8101 45.3829 35.5747 48.8796 35.5747C51.369 35.5747 53.1587 36.4411 54.4484 38.7096L51.3994 40.6673C50.7281 39.4636 50.004 38.9894 48.8796 38.9894C47.7328 38.9894 47.0058 39.7168 47.0058 40.6673C47.0058 41.8419 47.7335 42.3175 49.4133 43.045L50.3921 43.4643C53.7189 44.8908 55.5972 46.3452 55.5972 49.6151C55.5972 53.1402 52.828 55.0714 49.1091 55.0714C45.4729 55.0714 43.1237 53.3386 41.9741 51.0674L45.156 49.2189ZM31.3247 49.5582C31.9398 50.6494 32.4992 51.5721 33.8446 51.5721C35.1309 51.5721 35.9424 51.0688 35.9424 49.1118V35.7982H39.8578V49.1647C39.8578 53.2189 37.4807 55.0641 34.0112 55.0641C30.8763 55.0641 29.0608 53.4417 28.1375 51.4877L31.3247 49.5582Z" fill="black"/>
</svg>
