<svg width="46" height="46" viewBox="0 0 46 46" fill="none" xmlns="http://www.w3.org/2000/svg">
<g clip-path="url(#clip0_136_2)">
<path d="M30.8445 7.44196V28.5732C30.8445 33.4897 26.3232 37.6484 20.1641 38.9374C19.8475 39.0036 19.5262 39.062 19.2019 39.1128C18.2089 39.2684 17.1784 39.3501 16.1229 39.3501H15.1606C14.5747 39.3501 13.9964 39.3248 13.4287 39.2755C13.1044 39.248 12.784 39.2121 12.4665 39.1691C5.631 38.24 0.438965 33.8419 0.438965 28.5732H6.21217C6.21217 31.4985 8.84476 33.9814 12.4665 34.8203C12.7802 34.8929 13.1006 34.9534 13.4287 35.0006C13.9887 35.0816 14.5679 35.1239 15.1606 35.1239H16.1229C17.2044 35.1239 18.2416 34.983 19.2019 34.7245C19.5329 34.6351 19.8533 34.5322 20.1641 34.4167C23.0738 33.3341 25.0713 31.1216 25.0713 28.5732V7.44196H30.8445Z" fill="url(#paint0_radial_136_2)"/>
<path d="M30.8445 0.327759V28.5732C30.8445 33.4897 26.3232 37.6484 20.1641 38.9374C19.8475 39.0036 19.5262 39.062 19.2019 39.1128C18.2089 39.2684 17.1784 39.3501 16.1229 39.3501H15.1606C14.5747 39.3501 13.9964 39.3248 13.4287 39.2755C13.1044 39.248 12.784 39.2121 12.4665 39.1691C5.631 38.24 0.438965 33.8419 0.438965 28.5732H6.21217C6.21217 31.4985 8.84476 33.9814 12.4665 34.8203C12.7802 34.8928 13.1006 34.9534 13.4287 35.0006C13.9887 35.0816 14.5679 35.1239 15.1606 35.1239H16.1229C17.2044 35.1239 18.2416 34.983 19.2019 34.7245C19.5329 34.635 19.8533 34.5322 20.1641 34.4167C23.0738 33.3341 25.0713 31.1216 25.0713 28.5732V0.327759H30.8445Z" fill="url(#paint1_radial_136_2)"/>
<path d="M30.3633 7.23065V28.3619C30.3633 33.2784 25.842 37.4371 19.6829 38.7261C19.3663 38.7923 19.045 38.8507 18.7207 38.9015C17.7277 39.0571 16.6972 39.1388 15.6417 39.1388H14.6795C14.0935 39.1388 13.5152 39.1135 12.9475 39.0642C12.6232 39.0367 12.3028 39.0008 11.9853 38.9578C5.1498 38.0287 -0.0422363 33.6306 -0.0422363 28.3619H5.73097C5.73097 31.2872 8.36356 33.7701 11.9853 34.609C12.299 34.6815 12.6194 34.7421 12.9475 34.7893C13.5075 34.8703 14.0867 34.9126 14.6795 34.9126H15.6417C16.7232 34.9126 17.7604 34.7717 18.7207 34.5132C19.0517 34.4237 19.3721 34.3209 19.6829 34.2054C22.5926 33.1228 24.5901 30.9103 24.5901 28.3619V7.23065H30.3633Z" fill="url(#paint2_linear_136_2)"/>
<path d="M30.3633 0.116455V28.3619C30.3633 33.2784 25.842 37.4371 19.6829 38.7261C19.3663 38.7923 19.045 38.8507 18.7207 38.9015C17.7277 39.0571 16.6972 39.1388 15.6417 39.1388H14.6795C14.0935 39.1388 13.5152 39.1135 12.9475 39.0642C12.6232 39.0367 12.3028 39.0008 11.9853 38.9578C5.1498 38.0287 -0.0422363 33.6306 -0.0422363 28.3619H5.73097C5.73097 31.2872 8.36356 33.7701 11.9853 34.609C12.299 34.6815 12.6194 34.7421 12.9475 34.7893C13.5075 34.8703 14.0867 34.9126 14.6795 34.9126H15.6417C16.7232 34.9126 17.7604 34.7717 18.7207 34.5132C19.0517 34.4237 19.3721 34.3209 19.6829 34.2054C22.5926 33.1228 24.5901 30.9103 24.5901 28.3619V0.116455H30.3633Z" fill="url(#paint3_linear_136_2)"/>
<path d="M15.7379 40.2658H14.7757C14.1906 40.2658 13.6124 40.2425 13.0437 40.1961V45.9712H18.8169V40.0432C17.821 40.189 16.7915 40.2658 15.7379 40.2658ZM31.4218 12.5839V8.3576H13.0437V34.492C13.6018 34.5829 14.181 34.6308 14.7757 34.6308H15.7379C16.828 34.6308 17.8691 34.4702 18.8169 34.1786V27.7984H23.7241V23.5721H18.8169V12.5839H31.4218Z" fill="url(#paint4_radial_136_2)"/>
<path d="M15.7379 40.2658H14.7757C14.1906 40.2658 13.6124 40.2425 13.0437 40.1961V45.9712H18.8169V40.0432C17.821 40.189 16.7915 40.2658 15.7379 40.2658ZM32.5764 8.3576H13.0437V34.492C13.6018 34.5829 14.181 34.6308 14.7757 34.6308H15.7379C16.828 34.6308 17.8691 34.4702 18.8169 34.1786V27.7984H23.7241V23.5721H18.8169V12.5839H32.5764C36.7148 12.5839 40.0816 15.0485 40.0816 18.078C40.0816 21.1075 36.7148 23.5721 32.5764 23.5721H31.4218V27.7984H32.5764C39.8978 27.7984 45.8548 23.4376 45.8548 18.078C45.8548 12.7184 39.8978 8.3576 32.5764 8.3576Z" fill="url(#paint5_radial_136_2)"/>
<path d="M15.4493 39.7023H14.4871C13.9021 39.7023 13.3238 39.6791 12.7551 39.6326V45.4078H18.5283V39.4797C17.5325 39.6255 16.5029 39.7023 15.4493 39.7023ZM31.1332 12.0204V7.79413H12.7551V33.9286C13.3132 34.0194 13.8924 34.0673 14.4871 34.0673H15.4493C16.5395 34.0673 17.5806 33.9067 18.5283 33.6151V27.2349H23.4356V23.0086H18.5283V12.0204H31.1332Z" fill="url(#paint6_linear_136_2)"/>
<path d="M15.4493 39.7023H14.4871C13.9021 39.7023 13.3238 39.6791 12.7551 39.6326V45.4078H18.5283V39.4797C17.5325 39.6255 16.5029 39.7023 15.4493 39.7023ZM32.2878 7.79413H12.7551V33.9286C13.3132 34.0194 13.8924 34.0673 14.4871 34.0673H15.4493C16.5395 34.0673 17.5806 33.9067 18.5283 33.6151V27.2349H23.4356V23.0086H18.5283V12.0204H32.2878C36.4263 12.0204 39.793 14.485 39.793 17.5145C39.793 20.544 36.4263 23.0086 32.2878 23.0086H31.1332V27.2349H32.2878C39.6092 27.2349 45.5662 22.8741 45.5662 17.5145C45.5662 12.1549 39.6092 7.79413 32.2878 7.79413Z" fill="url(#paint7_linear_136_2)"/>
</g>
<defs>
<radialGradient id="paint0_radial_136_2" cx="0" cy="0" r="1" gradientUnits="userSpaceOnUse" gradientTransform="translate(35.6424 32.6363) scale(76.1357 55.7347)">
<stop/>
<stop offset="1" stop-color="#808080"/>
</radialGradient>
<radialGradient id="paint1_radial_136_2" cx="0" cy="0" r="1" gradientUnits="userSpaceOnUse" gradientTransform="translate(35.6424 32.6363) scale(76.1357 55.7347)">
<stop/>
<stop offset="1" stop-color="#808080"/>
</radialGradient>
<linearGradient id="paint2_linear_136_2" x1="51.1851" y1="40.0309" x2="25.3993" y2="13.9558" gradientUnits="userSpaceOnUse">
<stop stop-color="#00FFFF" stop-opacity="0.4"/>
<stop offset="1"/>
</linearGradient>
<linearGradient id="paint3_linear_136_2" x1="53.5087" y1="37.733" x2="27.723" y2="11.6579" gradientUnits="userSpaceOnUse">
<stop stop-color="#00FFFF" stop-opacity="0.4"/>
<stop offset="1"/>
</linearGradient>
<radialGradient id="paint4_radial_136_2" cx="0" cy="0" r="1" gradientUnits="userSpaceOnUse" gradientTransform="translate(37.2466 7.01188) scale(61.9423 45.3445)">
<stop/>
<stop offset="1" stop-color="#808080"/>
</radialGradient>
<radialGradient id="paint5_radial_136_2" cx="0" cy="0" r="1" gradientUnits="userSpaceOnUse" gradientTransform="translate(37.2466 7.01188) scale(61.9423 45.3445)">
<stop/>
<stop offset="1" stop-color="#808080"/>
</radialGradient>
<linearGradient id="paint6_linear_136_2" x1="47.9317" y1="6.3907" x2="26.5734" y2="31.3364" gradientUnits="userSpaceOnUse">
<stop stop-color="#00FFFF"/>
<stop offset="1"/>
</linearGradient>
<linearGradient id="paint7_linear_136_2" x1="47.9317" y1="6.3907" x2="26.5734" y2="31.3364" gradientUnits="userSpaceOnUse">
<stop stop-color="#00FFFF"/>
<stop offset="1"/>
</linearGradient>
<clipPath id="clip0_136_2">
<rect width="46" height="46" fill="white"/>
</clipPath>
</defs>
</svg>
