<svg width="30" height="30" viewBox="0 0 30 30" fill="none" xmlns="http://www.w3.org/2000/svg">
<path d="M27.6899 6.69598C19.2719 8.45998 10.9079 10.212 2.50488 11.97C2.09988 12.054 1.82088 12.168 1.88388 12.222C1.92888 12.261 1.96188 12.291 1.99788 12.318C3.86688 13.77 5.73288 15.222 7.60788 16.668C7.77588 16.797 7.83288 16.926 7.82988 17.13C7.81788 19.104 7.81788 21.081 7.81488 23.055V23.262C7.81488 23.376 8.09388 23.283 8.43888 23.055C9.64788 22.254 11.7359 20.889 12.9419 20.088C14.2949 21.063 15.6569 22.041 17.0399 23.034C17.3759 23.274 17.8259 23.19 18.0479 22.839C21.3719 17.616 24.6809 12.42 28.0229 7.17298C28.2449 6.82498 28.0949 6.61198 27.6899 6.69598ZM24.7799 8.93698C24.5819 9.06598 24.3809 9.19498 24.1799 9.32098C19.9829 12 15.7859 14.676 11.5949 17.361C11.4119 17.478 11.2439 17.655 11.1329 17.844C10.4459 18.981 9.77988 20.13 9.10488 21.276C9.07788 21.321 9.05088 21.363 9.02088 21.405C8.97288 21.477 8.93388 21.198 8.93388 20.784V18.516C8.93388 17.916 8.94588 17.316 8.93388 16.716C8.93088 16.512 8.99388 16.407 9.17988 16.32C11.4839 15.21 13.7819 14.088 16.0829 12.972C19.0769 11.517 22.0739 10.065 25.0709 8.61298C25.1189 8.58898 25.1669 8.56798 25.2209 8.55598C25.3019 8.53798 25.1099 8.72398 24.7799 8.93698Z" fill="#32CBCC"/>
</svg>
