<svg width="40" height="40" viewBox="0 0 40 40" fill="none" xmlns="http://www.w3.org/2000/svg">
<g clip-path="url(#clip0_253_9)">
<g filter="url(#filter0_d_253_9)">
<path fill-rule="evenodd" clip-rule="evenodd" d="M13.7667 2.14833L11.16 3.435C1.50502 8.46833 15.8233 38.3417 26.6767 38.3417C27.4433 38.3417 28.1833 38.185 28.8717 37.8683L31.4417 36.61L26.6117 27.2867L24.045 28.5433C23.7433 28.6883 23.405 28.7667 23.05 28.7667C18.7817 28.7667 11.6483 15.0933 15.9817 12.7733L18.5583 11.5017L13.7667 2.14833ZM26.6767 40C17.21 40 6.30835 21.4767 6.30835 10.28C6.30835 6.24833 7.69668 3.37 10.4033 1.96L14.3733 0L20.8017 12.245L16.74 14.2467C14.3417 15.5333 20.755 28.2867 23.3333 27.0467L27.3317 25.0817L33.6917 37.3483C33.6917 37.3483 29.7584 39.285 29.565 39.3733C28.6534 39.7917 27.6833 40 26.6767 40Z" fill="white"/>
</g>
</g>
<defs>
<filter id="filter0_d_253_9" x="4.30835" y="0" width="35.3833" height="48" filterUnits="userSpaceOnUse" color-interpolation-filters="sRGB">
<feFlood flood-opacity="0" result="BackgroundImageFix"/>
<feColorMatrix in="SourceAlpha" type="matrix" values="0 0 0 0 0 0 0 0 0 0 0 0 0 0 0 0 0 0 127 0" result="hardAlpha"/>
<feOffset dx="2" dy="4"/>
<feGaussianBlur stdDeviation="2"/>
<feComposite in2="hardAlpha" operator="out"/>
<feColorMatrix type="matrix" values="0 0 0 0 0 0 0 0 0 0 0 0 0 0 0 0 0 0 0.25 0"/>
<feBlend mode="normal" in2="BackgroundImageFix" result="effect1_dropShadow_253_9"/>
<feBlend mode="normal" in="SourceGraphic" in2="effect1_dropShadow_253_9" result="shape"/>
</filter>
<clipPath id="clip0_253_9">
<rect width="40" height="40" fill="white"/>
</clipPath>
</defs>
</svg>
