<svg width="76" height="75" viewBox="0 0 76 75" fill="none" xmlns="http://www.w3.org/2000/svg">
<g opacity="0.7">
<path fill-rule="evenodd" clip-rule="evenodd" d="M38 48.058C49.5059 48.058 58.8334 43.3308 58.8334 37.5001C58.8334 31.6694 49.5059 26.9424 38 26.9424C26.4943 26.9424 17.1667 31.6694 17.1667 37.5001C17.1667 43.3308 26.4943 48.058 38 48.058Z" fill="#A5B4FC"/>
<path fill-rule="evenodd" clip-rule="evenodd" d="M42.2223 40.9123L43.2557 35.5937C43.4888 34.3933 43.2949 33.498 42.6795 32.9323C42.0831 32.3848 41.0709 32.1185 39.5851 32.1185H37.7955L38.3074 29.4834C38.3169 29.4343 38.3156 29.3839 38.3034 29.3354C38.2911 29.2869 38.2683 29.2418 38.2364 29.2032C38.2047 29.1646 38.1648 29.1335 38.1197 29.1122C38.0744 29.091 38.0251 29.0798 37.9751 29.0798H35.505C35.3428 29.0798 35.2035 29.195 35.1726 29.3543L34.0749 35.0005C33.9751 34.3652 33.7292 33.819 33.3357 33.3684C32.6112 32.5389 31.4653 32.1185 29.9292 32.1185H25.1417C24.9795 32.1185 24.8402 32.2336 24.8093 32.3926L22.5881 43.8218C22.5687 43.9213 22.5947 44.0236 22.6591 44.1017C22.7234 44.18 22.8191 44.2251 22.9206 44.2251H25.4101C25.5723 44.2251 25.7116 44.11 25.7426 43.9505L26.28 41.1862H28.1331C29.1055 41.1862 29.9227 41.0809 30.5606 40.8733C31.2128 40.6612 31.8131 40.3014 32.3421 39.8062C32.7696 39.4134 33.1229 38.9735 33.3947 38.4992L32.9511 40.7826C32.9317 40.8822 32.9576 40.9849 33.0221 41.0624C33.0863 41.1408 33.1824 41.1859 33.2836 41.1859H35.7537C35.9159 41.1859 36.0553 41.0707 36.0862 40.9119L37.3052 34.6383H39.0002C39.7224 34.6383 39.934 34.7821 39.9917 34.8439C40.0439 34.9002 40.1521 35.099 40.0305 35.7255L39.048 40.7824C39.0387 40.8314 39.0401 40.8819 39.0525 40.9302C39.0648 40.9786 39.0877 41.0237 39.1194 41.0622C39.1512 41.1007 39.1911 41.1318 39.2362 41.1531C39.2813 41.1744 39.3306 41.1855 39.3806 41.1856H41.89C41.9685 41.1858 42.0446 41.1586 42.1052 41.1088C42.1659 41.0588 42.2073 40.9894 42.2223 40.9123ZM30.7705 36.5178C30.6152 37.3151 30.323 37.8838 29.9013 38.208C29.4731 38.5383 28.788 38.7055 27.8653 38.7055H26.7618L27.5597 34.5997H28.9864C30.0344 34.5997 30.4565 34.8236 30.6261 35.0113C30.8611 35.2718 30.9109 35.793 30.7705 36.5178ZM52.6268 33.3684C51.9025 32.5389 50.7566 32.1185 49.2206 32.1185H44.433C44.2706 32.1185 44.1316 32.2336 44.1005 32.3926L41.8797 43.8218C41.86 43.9213 41.886 44.0236 41.9504 44.1017C42.015 44.1797 42.1109 44.2251 42.2117 44.2251H44.7014C44.8639 44.2251 45.0029 44.11 45.034 43.9505L45.5713 41.1862H47.4246C48.3973 41.1862 49.2138 41.0809 49.8519 40.8733C50.5044 40.6612 51.1047 40.3014 51.6334 39.8062C52.0749 39.4008 52.4378 38.945 52.7129 38.4531C52.9881 37.961 53.1853 37.4123 53.3005 36.8218C53.5833 35.3655 53.3568 34.2037 52.6268 33.3684ZM50.2031 36.5178C50.0476 37.3151 49.7554 37.8838 49.3342 38.208C48.9057 38.5383 48.2207 38.7055 47.2982 38.7055H46.1945L46.9921 34.5997H48.419C49.467 34.5997 49.8892 34.8236 50.059 35.0113C50.2935 35.2718 50.3437 35.793 50.2031 36.5178Z" fill="#1E2235"/>
<path fill-rule="evenodd" clip-rule="evenodd" d="M28.9155 34.261C29.8612 34.261 30.4917 34.4356 30.8069 34.7848C31.1217 35.1339 31.1969 35.7335 31.0321 36.5828C30.8598 37.4672 30.5283 38.0986 30.037 38.4769C29.5458 38.8553 28.7981 39.0443 27.7944 39.0443H26.2798L27.2094 34.261H28.9155ZM22.8495 43.8864H25.339L25.9297 40.848H28.0623C29.0031 40.848 29.7772 40.749 30.3848 40.5512C30.9925 40.3535 31.5451 40.0222 32.0421 39.5569C32.4593 39.1738 32.7968 38.7506 33.0552 38.288C33.3135 37.8255 33.4969 37.3154 33.6054 36.7573C33.869 35.4025 33.6702 34.3472 33.0097 33.5915C32.3494 32.8355 31.2986 32.4575 29.8584 32.4575H25.0708L22.8495 43.8864ZM35.434 29.4189H37.904L37.3135 32.4575H39.5142C40.8984 32.4575 41.8538 32.6989 42.3794 33.1818C42.9049 33.6647 43.0624 34.4474 42.8523 35.5294L41.8189 40.848H39.3094L40.2919 35.791C40.4035 35.2156 40.3628 34.8234 40.1685 34.614C39.9743 34.405 39.5608 34.3001 38.9291 34.3001H36.955L35.6825 40.848H33.2125L35.434 29.4189ZM48.3482 34.261C49.2938 34.261 49.9242 34.4356 50.2396 34.7848C50.5545 35.1339 50.6294 35.7335 50.4645 36.5828C50.2928 37.4672 49.9612 38.0986 49.4697 38.4769C48.9787 38.8553 48.2308 39.0443 47.2276 39.0443H45.7131L46.6424 34.261H48.3482ZM42.2816 43.8864H44.7713L45.3619 40.848H47.4944C48.4356 40.848 49.2097 40.749 49.8173 40.5512C50.425 40.3535 50.9774 40.0222 51.4744 39.5569C51.8916 39.1738 52.2293 38.7506 52.4875 38.288C52.7457 37.8255 52.9293 37.3154 53.0382 36.7573C53.3015 35.4025 53.1026 34.3472 52.4423 33.5915C51.7815 32.8355 50.7311 32.4575 49.2909 32.4575H44.5033L42.2816 43.8864Z" fill="white"/>
</g>
</svg>
