<svg width="76" height="75" viewBox="0 0 76 75" fill="none" xmlns="http://www.w3.org/2000/svg">
<path d="M17.1667 17.0139H58.8334V57.9861H17.1667V17.0139Z" fill="url(#paint0_linear_147_89)"/>
<path d="M20.4804 20.2722H55.5199V54.728H20.4804V20.2722Z" fill="url(#paint1_linear_147_89)"/>
<path d="M27.2359 28.5617C27.2359 28.5617 29.8703 28.4923 32.0388 28.4923C34.2303 28.4923 35.7927 29.0079 36.8418 29.9138C37.8444 30.77 38.5206 32.2295 38.5206 33.8908C38.5206 35.5522 38.0075 36.9116 37.0747 37.8674C35.8624 39.1009 34.4496 39.8311 32.0388 39.9321C31.3729 39.9599 30.7565 39.9666 30.7565 39.9666V45.3672H27.2356L27.2359 28.5617ZM30.7563 36.9745C31.1388 37.0118 31.3786 36.9938 31.9455 36.9871C33.8342 36.9644 34.9996 35.8159 34.9996 34.0791C34.9996 32.5189 34.0387 31.2377 32.2255 31.1714C31.5029 31.145 30.7563 31.1714 30.7563 31.1714V36.9745Z" fill="url(#paint2_linear_147_89)"/>
<path d="M39.8641 41.6049C40.5737 42.0403 42.2482 42.6924 43.3895 42.6924C44.5557 42.6924 45.0371 42.2815 45.0371 41.6408C45.0371 40.9992 44.6569 40.3253 43.2114 39.8381C40.6506 38.9661 39.6615 37.9221 39.6872 36.4611C39.6872 34.1011 41.6647 32.3318 44.7327 32.3318C46.1781 32.3318 47.3325 32.8043 48.0926 33.1887V36.0208C47.5342 35.7128 45.9244 35.0251 44.8597 35.0251C43.921 35.0251 43.3889 35.4097 43.3889 36.0503C43.3889 36.6403 43.8709 36.9482 45.3922 37.487C47.7499 38.3075 48.7388 39.5125 48.7638 41.3591C48.7638 43.6931 46.9646 45.5491 43.3889 45.4364C42.1616 45.3979 40.802 44.9126 39.8639 44.4005L39.8641 41.6049Z" fill="url(#paint3_linear_147_89)"/>
<defs>
<linearGradient id="paint0_linear_147_89" x1="27.2924" y1="14.8741" x2="43.2646" y2="48.6243" gradientUnits="userSpaceOnUse">
<stop stop-color="#A0CBFF"/>
<stop offset="0.394" stop-color="#A0CBFE"/>
<stop offset="0.583" stop-color="#8EC2FC"/>
<stop offset="0.784" stop-color="#83BCFB"/>
<stop offset="1" stop-color="#7FBAFB"/>
</linearGradient>
<linearGradient id="paint1_linear_147_89" x1="32.9617" y1="20.7577" x2="41.9896" y2="50.758" gradientUnits="userSpaceOnUse">
<stop stop-color="#090058"/>
<stop offset="1" stop-color="#070033"/>
</linearGradient>
<linearGradient id="paint2_linear_147_89" x1="22.3246" y1="16.67" x2="38.2967" y2="50.4198" gradientUnits="userSpaceOnUse">
<stop stop-color="#A0CBFF"/>
<stop offset="0.394" stop-color="#A0CBFE"/>
<stop offset="0.583" stop-color="#8EC2FC"/>
<stop offset="0.784" stop-color="#83BCFB"/>
<stop offset="1" stop-color="#7FBAFB"/>
</linearGradient>
<linearGradient id="paint3_linear_147_89" x1="31.4224" y1="12.2632" x2="47.4578" y2="46.1468" gradientUnits="userSpaceOnUse">
<stop stop-color="#A0CBFF"/>
<stop offset="0.394" stop-color="#A0CBFE"/>
<stop offset="0.583" stop-color="#8EC2FC"/>
<stop offset="0.784" stop-color="#83BCFB"/>
<stop offset="1" stop-color="#7FBAFB"/>
</linearGradient>
</defs>
</svg>
