<svg width="100" height="100" viewBox="0 0 100 100" fill="none" xmlns="http://www.w3.org/2000/svg">
<path d="M92.58 63.2101H91.03V45.2901C91.03 44.4601 90.38 43.7801 89.59 43.7801H85.88V21.1701C85.88 20.0901 85.3 19.3301 84.22 19.3301H8.52C7.44 19.3301 6.25 20.0901 6.25 21.1701V65.6201C6.25 66.7201 7.44 67.9601 8.52 67.9601H37.97L37.43 74.5901C37.43 74.5901 37.22 75.6701 36.46 76.5501C35.7 77.4301 34.32 78.7401 34.32 78.7401C34.32 78.7401 33.08 79.8801 34.94 80.2001C36.01 80.3801 40.76 80.6401 44.59 80.6401H48.2C52.1 80.6401 56.78 80.3601 57.84 80.1701C59.7 79.8501 58.45 78.6701 58.45 78.6701C58.45 78.6701 57.07 77.3101 56.31 76.4301C55.55 75.5501 55.35 74.6001 55.35 74.6001L54.81 67.9701H63.36V79.1501C63.36 79.9801 64.01 80.6301 64.82 80.6301H92.58C93.23 80.6301 93.75 80.1101 93.75 79.4601V64.3801C93.75 63.7301 93.23 63.2101 92.58 63.2101ZM90.26 64.1801V64.4901C90.26 64.6001 90.19 64.6701 90.08 64.6701H89.05C88.96 64.6701 88.87 64.6001 88.87 64.4901V64.1801C88.87 64.0701 88.96 63.9801 89.05 63.9801H90.08C90.2 63.9801 90.26 64.0701 90.26 64.1801ZM9.31 64.4301V22.8401H82.59V43.7801H64.82C64.01 43.7801 63.36 44.4501 63.36 45.2901V64.4301H9.31ZM66.02 67.9601V46.9101H88.2V63.2201H86.56C85.93 63.2201 85.39 63.7401 85.39 64.3901V77.5301H66.02V67.9601ZM77.17 79.8401C76.72 79.8401 76.34 79.4601 76.34 79.0101C76.34 78.5401 76.72 78.1601 77.17 78.1601C77.62 78.1601 77.98 78.5401 77.98 79.0101C77.98 79.4501 77.62 79.8401 77.17 79.8401ZM88.89 79.0701C88.89 78.6601 89.23 78.3301 89.65 78.3301C90.08 78.3301 90.41 78.6701 90.41 79.0701C90.41 79.5001 90.07 79.8301 89.65 79.8301C89.23 79.8401 88.89 79.5001 88.89 79.0701ZM93.05 77.8301H86.08V65.3101H93.05V77.8301Z" fill="white" fill-opacity="0.05"/>
</svg>
