<svg width="76" height="75" viewBox="0 0 76 75" fill="none" xmlns="http://www.w3.org/2000/svg">
<path d="M17.5632 31.2638C17.5632 31.2638 16.5483 30.5323 17.7661 29.5555L20.6034 27.0184C20.6034 27.0184 21.4153 26.1643 22.2738 26.9084L48.4567 46.7317V56.2374C48.4567 56.2374 48.4441 57.7302 46.5285 57.5652L17.5632 31.2638Z" fill="#2489CA"/>
<path d="M24.3118 37.3911L17.563 43.5267C17.563 43.5267 16.8697 44.0425 17.563 44.9644L20.6964 47.8144C20.6964 47.8144 21.4407 48.6135 22.5401 47.7044L29.6947 42.2792L24.3118 37.3911Z" fill="#1070B3"/>
<path d="M36.1602 37.4418L48.5371 27.9911L48.4567 18.536C48.4567 18.536 47.9281 16.4726 46.1648 17.5466L29.6948 32.5368L36.1602 37.4418Z" fill="#0877B9"/>
<path d="M46.5285 57.5778C47.2473 58.3136 48.1184 58.0726 48.1184 58.0726L57.7637 53.3197C58.9984 52.4782 58.8251 51.4338 58.8251 51.4338V23.0519C58.8251 21.8045 57.5481 21.3733 57.5481 21.3733L49.1882 17.3435C47.3614 16.2145 46.1648 17.5464 46.1648 17.5464C46.1648 17.5464 47.704 16.4385 48.4567 18.5359V56.064C48.4567 56.3219 48.4017 56.5757 48.2918 56.8041C48.0719 57.248 47.5941 57.6624 46.4482 57.489L46.5285 57.5778Z" fill="#3C99D4"/>
</svg>
